<?xml version="1.0" standalone="no"?>
<!DOCTYPE svg PUBLIC "-//W3C//DTD SVG 20010904//EN"
 "http://www.w3.org/TR/2001/REC-SVG-20010904/DTD/svg10.dtd">
<svg version="1.0" xmlns="http://www.w3.org/2000/svg"
 width="250.000000pt" height="250.000000pt" viewBox="0 0 250.000000 250.000000"
 preserveAspectRatio="xMidYMid meet">

<g transform="translate(0.000000,250.000000) scale(0.100000,-0.100000)"
fill="#000000" stroke="none">
<path d="M665 2136 c-61 -15 -88 -29 -144 -74 -52 -42 -105 -122 -121 -182 -9
-32 -12 -206 -11 -627 1 -560 2 -584 21 -637 27 -71 77 -136 137 -175 94 -62
89 -62 749 -59 l599 3 54 28 c107 57 180 156 202 273 6 33 9 270 7 617 l-3
562 -27 58 c-38 80 -115 158 -191 193 l-62 29 -580 2 c-436 1 -592 -1 -630
-11z m773 -86 c463 -95 750 -591 600 -1035 -44 -130 -97 -215 -198 -316 -106
-107 -190 -161 -325 -206 -74 -25 -93 -27 -245 -27 -160 -1 -168 0 -252 30
-337 121 -549 415 -550 764 0 129 20 226 74 340 159 344 524 527 896 450z"/>
<path d="M890 1735 c0 -13 48 -15 386 -15 304 0 385 3 382 13 -4 9 -92 13
-386 15 -335 2 -382 0 -382 -13z"/>
<path d="M848 1663 c-26 -4 -35 -20 -51 -90 -5 -21 -2 -23 39 -23 47 0 51 5
57 79 2 36 -3 40 -45 34z"/>
<path d="M957 1663 c-3 -5 -8 -32 -12 -60 l-7 -53 45 0 44 0 7 50 c4 28 4 55
1 60 -7 12 -72 13 -78 3z"/>
<path d="M1095 1658 c-2 -7 -5 -34 -8 -60 l-5 -48 49 0 49 0 0 60 0 60 -40 0
c-24 0 -42 -5 -45 -12z"/>
<path d="M1237 1664 c-4 -4 -7 -31 -7 -61 l0 -53 45 0 46 0 -3 58 -3 57 -35 3
c-20 2 -39 0 -43 -4z"/>
<path d="M1374 1655 c-4 -8 -3 -35 0 -60 l7 -45 46 0 46 0 -7 31 c-3 17 -6 44
-6 60 0 27 -3 29 -40 29 -27 0 -43 -5 -46 -15z"/>
<path d="M1517 1663 c-2 -5 -2 -32 1 -60 l4 -53 45 0 46 0 -7 52 c-4 28 -9 55
-12 60 -6 10 -72 11 -77 1z"/>
<path d="M1664 1664 c-7 -3 -10 -13 -8 -22 1 -9 6 -34 9 -54 6 -37 7 -38 50
-38 50 0 49 -1 34 55 -15 55 -45 75 -85 59z"/>
<path d="M784 1486 c-3 -8 -1 -23 5 -35 14 -26 15 -381 1 -381 -6 0 -10 -43
-10 -110 l0 -110 438 1 c305 0 429 3 412 10 -14 6 -189 13 -415 16 -268 4
-392 9 -397 17 -9 13 -10 108 -2 130 5 14 53 16 430 16 285 0 424 3 424 10 0
6 -7 13 -15 16 -10 4 -15 20 -15 50 l0 44 -55 0 -55 0 0 -45 0 -45 -70 0 -70
0 0 45 0 45 -100 0 -100 0 0 -45 0 -45 -40 0 -40 0 0 45 0 45 -100 0 -100 0 0
-46 0 -45 -37 3 -38 3 2 174 c1 163 3 174 22 188 12 8 21 25 21 39 0 22 -4 24
-45 24 -30 0 -47 -5 -51 -14z"/>
<path d="M930 1475 c0 -33 41 -61 69 -46 22 12 36 45 26 61 -3 5 -26 10 -51
10 -40 0 -44 -2 -44 -25z"/>
<path d="M1080 1476 c0 -26 23 -56 44 -56 22 0 46 24 48 50 3 23 0 25 -44 28
-45 3 -48 2 -48 -22z"/>
<path d="M1230 1478 c0 -28 10 -42 33 -51 30 -11 57 10 57 43 0 29 -2 30 -45
30 -40 0 -45 -2 -45 -22z"/>
<path d="M1380 1470 c0 -38 31 -57 66 -41 18 8 24 19 24 41 0 29 -2 30 -45 30
-43 0 -45 -1 -45 -30z"/>
<path d="M1530 1470 c0 -33 27 -54 57 -43 23 9 33 23 33 51 0 20 -5 22 -45 22
-43 0 -45 -1 -45 -30z"/>
<path d="M1680 1471 c0 -11 9 -26 20 -34 18 -13 20 -26 22 -178 2 -192 15
-176 17 21 1 97 6 142 16 160 24 42 19 50 -30 50 -38 0 -45 -3 -45 -19z"/>
<path d="M1685 1050 c-3 -5 1 -10 9 -10 9 0 16 5 16 10 0 6 -4 10 -9 10 -6 0
-13 -4 -16 -10z"/>
<path d="M874 981 c-2 -2 -4 -15 -4 -28 l0 -23 374 0 c205 0 388 3 405 6 21 5
31 12 31 25 0 18 -15 19 -332 21 -183 1 -364 2 -401 2 -38 1 -71 -1 -73 -3z"/>
<path d="M784 791 c-2 -2 -4 -11 -4 -19 0 -13 57 -14 473 -9 259 4 482 7 495
7 12 0 22 4 22 10 0 9 -976 20 -986 11z"/>
</g>
</svg>
